<mxfile host="app.diagrams.net" modified="2021-03-25T18:29:59.831Z" agent="5.0 (Macintosh; Intel Mac OS X 10_15_6) AppleWebKit/605.1.15 (KHTML, like Gecko) Version/14.0.3 Safari/605.1.15" etag="xS5mirlCJqF5cCSF9FEq" version="14.5.1" type="github">
  <diagram id="XcKGsyV00WeHHc64nAs3" name="Page-1">
    <mxGraphModel dx="2066" dy="1185" grid="1" gridSize="10" guides="1" tooltips="1" connect="1" arrows="1" fold="1" page="1" pageScale="1" pageWidth="1169" pageHeight="1654" math="0" shadow="0">
      <root>
        <mxCell id="0" />
        <mxCell id="1" parent="0" />
        <mxCell id="nm_bYdckhoNJVA_QhQpG-9" style="edgeStyle=orthogonalEdgeStyle;rounded=0;orthogonalLoop=1;jettySize=auto;html=1;exitX=1;exitY=0.5;exitDx=0;exitDy=0;fontSize=14;" edge="1" parent="1" source="nm_bYdckhoNJVA_QhQpG-1" target="nm_bYdckhoNJVA_QhQpG-2">
          <mxGeometry relative="1" as="geometry" />
        </mxCell>
        <mxCell id="nm_bYdckhoNJVA_QhQpG-1" value="" style="ellipse;whiteSpace=wrap;html=1;aspect=fixed;fontSize=14;" vertex="1" parent="1">
          <mxGeometry x="80" y="160" width="40" height="40" as="geometry" />
        </mxCell>
        <mxCell id="nm_bYdckhoNJVA_QhQpG-10" style="edgeStyle=orthogonalEdgeStyle;rounded=0;orthogonalLoop=1;jettySize=auto;html=1;exitX=0.5;exitY=1;exitDx=0;exitDy=0;entryX=0;entryY=0.5;entryDx=0;entryDy=0;fontSize=14;" edge="1" parent="1" source="nm_bYdckhoNJVA_QhQpG-2" target="nm_bYdckhoNJVA_QhQpG-3">
          <mxGeometry relative="1" as="geometry" />
        </mxCell>
        <mxCell id="nm_bYdckhoNJVA_QhQpG-18" style="edgeStyle=orthogonalEdgeStyle;rounded=0;orthogonalLoop=1;jettySize=auto;html=1;exitX=1;exitY=0.5;exitDx=0;exitDy=0;entryX=0;entryY=0.5;entryDx=0;entryDy=0;fontSize=14;" edge="1" parent="1" source="nm_bYdckhoNJVA_QhQpG-2" target="nm_bYdckhoNJVA_QhQpG-17">
          <mxGeometry relative="1" as="geometry" />
        </mxCell>
        <mxCell id="nm_bYdckhoNJVA_QhQpG-2" value="" style="ellipse;whiteSpace=wrap;html=1;aspect=fixed;fontSize=14;" vertex="1" parent="1">
          <mxGeometry x="200" y="160" width="40" height="40" as="geometry" />
        </mxCell>
        <mxCell id="nm_bYdckhoNJVA_QhQpG-11" style="edgeStyle=orthogonalEdgeStyle;rounded=0;orthogonalLoop=1;jettySize=auto;html=1;exitX=1;exitY=0.5;exitDx=0;exitDy=0;entryX=0;entryY=0.5;entryDx=0;entryDy=0;fontSize=14;" edge="1" parent="1" source="nm_bYdckhoNJVA_QhQpG-3" target="nm_bYdckhoNJVA_QhQpG-4">
          <mxGeometry relative="1" as="geometry" />
        </mxCell>
        <mxCell id="nm_bYdckhoNJVA_QhQpG-3" value="" style="ellipse;whiteSpace=wrap;html=1;aspect=fixed;fontSize=14;" vertex="1" parent="1">
          <mxGeometry x="320" y="240" width="40" height="40" as="geometry" />
        </mxCell>
        <mxCell id="nm_bYdckhoNJVA_QhQpG-12" style="edgeStyle=orthogonalEdgeStyle;rounded=0;orthogonalLoop=1;jettySize=auto;html=1;exitX=1;exitY=0.5;exitDx=0;exitDy=0;fontSize=14;" edge="1" parent="1" source="nm_bYdckhoNJVA_QhQpG-4">
          <mxGeometry relative="1" as="geometry">
            <mxPoint x="560" y="260" as="targetPoint" />
          </mxGeometry>
        </mxCell>
        <mxCell id="nm_bYdckhoNJVA_QhQpG-15" style="edgeStyle=orthogonalEdgeStyle;rounded=0;orthogonalLoop=1;jettySize=auto;html=1;exitX=0.5;exitY=1;exitDx=0;exitDy=0;entryX=0;entryY=0.5;entryDx=0;entryDy=0;fontSize=14;" edge="1" parent="1" source="nm_bYdckhoNJVA_QhQpG-4" target="nm_bYdckhoNJVA_QhQpG-7">
          <mxGeometry relative="1" as="geometry" />
        </mxCell>
        <mxCell id="nm_bYdckhoNJVA_QhQpG-4" value="" style="ellipse;whiteSpace=wrap;html=1;aspect=fixed;fontSize=14;" vertex="1" parent="1">
          <mxGeometry x="440" y="240" width="40" height="40" as="geometry" />
        </mxCell>
        <mxCell id="nm_bYdckhoNJVA_QhQpG-13" style="edgeStyle=orthogonalEdgeStyle;rounded=0;orthogonalLoop=1;jettySize=auto;html=1;exitX=1;exitY=0.5;exitDx=0;exitDy=0;entryX=0;entryY=0.5;entryDx=0;entryDy=0;fontSize=14;" edge="1" parent="1" source="nm_bYdckhoNJVA_QhQpG-5" target="nm_bYdckhoNJVA_QhQpG-6">
          <mxGeometry relative="1" as="geometry" />
        </mxCell>
        <mxCell id="nm_bYdckhoNJVA_QhQpG-5" value="" style="ellipse;whiteSpace=wrap;html=1;aspect=fixed;fontSize=14;" vertex="1" parent="1">
          <mxGeometry x="560" y="240" width="40" height="40" as="geometry" />
        </mxCell>
        <mxCell id="nm_bYdckhoNJVA_QhQpG-14" style="edgeStyle=orthogonalEdgeStyle;rounded=0;orthogonalLoop=1;jettySize=auto;html=1;exitX=1;exitY=0.5;exitDx=0;exitDy=0;entryX=0.5;entryY=1;entryDx=0;entryDy=0;fontSize=14;" edge="1" parent="1" source="nm_bYdckhoNJVA_QhQpG-6" target="nm_bYdckhoNJVA_QhQpG-8">
          <mxGeometry relative="1" as="geometry" />
        </mxCell>
        <mxCell id="nm_bYdckhoNJVA_QhQpG-6" value="" style="ellipse;whiteSpace=wrap;html=1;aspect=fixed;fontSize=14;" vertex="1" parent="1">
          <mxGeometry x="680" y="240" width="40" height="40" as="geometry" />
        </mxCell>
        <mxCell id="nm_bYdckhoNJVA_QhQpG-16" style="edgeStyle=orthogonalEdgeStyle;rounded=0;orthogonalLoop=1;jettySize=auto;html=1;exitX=1;exitY=0.5;exitDx=0;exitDy=0;entryX=0.5;entryY=1;entryDx=0;entryDy=0;fontSize=14;" edge="1" parent="1" source="nm_bYdckhoNJVA_QhQpG-7" target="nm_bYdckhoNJVA_QhQpG-6">
          <mxGeometry relative="1" as="geometry" />
        </mxCell>
        <mxCell id="nm_bYdckhoNJVA_QhQpG-7" value="" style="ellipse;whiteSpace=wrap;html=1;aspect=fixed;fontSize=14;" vertex="1" parent="1">
          <mxGeometry x="560" y="320" width="40" height="40" as="geometry" />
        </mxCell>
        <mxCell id="nm_bYdckhoNJVA_QhQpG-21" style="edgeStyle=orthogonalEdgeStyle;rounded=0;orthogonalLoop=1;jettySize=auto;html=1;exitX=1;exitY=0.5;exitDx=0;exitDy=0;entryX=0;entryY=0.5;entryDx=0;entryDy=0;fontSize=14;" edge="1" parent="1" source="nm_bYdckhoNJVA_QhQpG-8" target="nm_bYdckhoNJVA_QhQpG-20">
          <mxGeometry relative="1" as="geometry" />
        </mxCell>
        <mxCell id="nm_bYdckhoNJVA_QhQpG-8" value="" style="ellipse;whiteSpace=wrap;html=1;aspect=fixed;fontSize=14;" vertex="1" parent="1">
          <mxGeometry x="800" y="160" width="40" height="40" as="geometry" />
        </mxCell>
        <mxCell id="nm_bYdckhoNJVA_QhQpG-19" style="edgeStyle=orthogonalEdgeStyle;rounded=0;orthogonalLoop=1;jettySize=auto;html=1;exitX=1;exitY=0.5;exitDx=0;exitDy=0;entryX=0;entryY=0.5;entryDx=0;entryDy=0;fontSize=14;" edge="1" parent="1" source="nm_bYdckhoNJVA_QhQpG-17" target="nm_bYdckhoNJVA_QhQpG-8">
          <mxGeometry relative="1" as="geometry" />
        </mxCell>
        <mxCell id="nm_bYdckhoNJVA_QhQpG-17" value="" style="ellipse;whiteSpace=wrap;html=1;aspect=fixed;fontSize=14;" vertex="1" parent="1">
          <mxGeometry x="560" y="160" width="40" height="40" as="geometry" />
        </mxCell>
        <mxCell id="nm_bYdckhoNJVA_QhQpG-20" value="" style="ellipse;whiteSpace=wrap;html=1;aspect=fixed;fontSize=14;" vertex="1" parent="1">
          <mxGeometry x="920" y="160" width="40" height="40" as="geometry" />
        </mxCell>
        <mxCell id="nm_bYdckhoNJVA_QhQpG-22" value="&lt;font style=&quot;font-size: 14px&quot;&gt;Prvotní záznam&lt;/font&gt;" style="text;html=1;strokeColor=none;fillColor=none;align=center;verticalAlign=middle;whiteSpace=wrap;rounded=0;fontSize=14;" vertex="1" parent="1">
          <mxGeometry x="30" y="130" width="140" height="20" as="geometry" />
        </mxCell>
        <mxCell id="nm_bYdckhoNJVA_QhQpG-23" value="&lt;font style=&quot;font-size: 20px&quot;&gt;Master&lt;/font&gt;" style="text;html=1;strokeColor=none;fillColor=none;align=center;verticalAlign=middle;whiteSpace=wrap;rounded=0;fontSize=14;" vertex="1" parent="1">
          <mxGeometry x="1000" y="160" width="120" height="40" as="geometry" />
        </mxCell>
        <mxCell id="nm_bYdckhoNJVA_QhQpG-24" value="&lt;font style=&quot;font-size: 20px&quot;&gt;Větev 1&lt;/font&gt;" style="text;html=1;strokeColor=none;fillColor=none;align=center;verticalAlign=middle;whiteSpace=wrap;rounded=0;fontSize=14;" vertex="1" parent="1">
          <mxGeometry x="1000" y="240" width="120" height="40" as="geometry" />
        </mxCell>
        <mxCell id="nm_bYdckhoNJVA_QhQpG-25" value="&lt;font style=&quot;font-size: 20px&quot;&gt;Větev 2&lt;/font&gt;" style="text;html=1;strokeColor=none;fillColor=none;align=center;verticalAlign=middle;whiteSpace=wrap;rounded=0;fontSize=14;" vertex="1" parent="1">
          <mxGeometry x="1000" y="320" width="120" height="40" as="geometry" />
        </mxCell>
        <mxCell id="nm_bYdckhoNJVA_QhQpG-26" value="&lt;font style=&quot;font-size: 14px&quot;&gt;Aktuální verze&lt;/font&gt;" style="text;html=1;strokeColor=none;fillColor=none;align=center;verticalAlign=middle;whiteSpace=wrap;rounded=0;fontSize=14;" vertex="1" parent="1">
          <mxGeometry x="870" y="130" width="140" height="20" as="geometry" />
        </mxCell>
      </root>
    </mxGraphModel>
  </diagram>
</mxfile>
